<?xml version="1.0" encoding="UTF-8" standalone="no"?>
<!-- Created with Inkscape (http://www.inkscape.org/) -->

<svg
   xmlns:dc="http://purl.org/dc/elements/1.1/"
   xmlns:cc="http://creativecommons.org/ns#"
   xmlns:rdf="http://www.w3.org/1999/02/22-rdf-syntax-ns#"
   xmlns:svg="http://www.w3.org/2000/svg"
   xmlns="http://www.w3.org/2000/svg"
   xmlns:sodipodi="http://sodipodi.sourceforge.net/DTD/sodipodi-0.dtd"
   xmlns:inkscape="http://www.inkscape.org/namespaces/inkscape"
   width="210mm"
   height="297mm"
   viewBox="0 0 210 297"
   version="1.1"
   id="svg8"
   inkscape:version="0.92.4 (5da689c313, 2019-01-14)"
   sodipodi:docname="controller.svg">
  <defs
     id="defs2" />
  <sodipodi:namedview
     id="base"
     pagecolor="#ffffff"
     bordercolor="#666666"
     borderopacity="1.0"
     inkscape:pageopacity="0.0"
     inkscape:pageshadow="2"
     inkscape:zoom="1.0330822"
     inkscape:cx="245.7467"
     inkscape:cy="835.26994"
     inkscape:document-units="mm"
     inkscape:current-layer="layer1"
     showgrid="false"
     inkscape:window-width="1920"
     inkscape:window-height="1016"
     inkscape:window-x="0"
     inkscape:window-y="36"
     inkscape:window-maximized="1" />
  <metadata
     id="metadata5">
    <rdf:RDF>
      <cc:Work
         rdf:about="">
        <dc:format>image/svg+xml</dc:format>
        <dc:type
           rdf:resource="http://purl.org/dc/dcmitype/StillImage" />
        <dc:title></dc:title>
      </cc:Work>
    </rdf:RDF>
  </metadata>
  <g
     inkscape:label="Layer 1"
     inkscape:groupmode="layer"
     id="layer1">
    <path
       style="fill:#000000;stroke-width:0.13256785"
       d="M 50.475619,99.014362 C 48.141598,98.555249 46.518516,97.049928 45.081663,94.011757 44.19443,92.135735 43.66007,90.103674 43.212342,86.903111 42.925803,84.854793 42.885582,77.672819 43.144042,74.70688 44.19065,62.696545 46.717308,50.429759 50.475632,39.11241 53.739934,29.282695 57.899611,22.205996 62.045,19.429886 c 1.241717,-0.831561 3.579506,-1.973392 5.026909,-2.455261 2.244996,-0.747403 3.387663,-0.913721 6.254917,-0.910418 4.583767,0.0053 6.88811,0.571078 12.202221,2.996083 4.144476,1.891262 5.238684,2.311134 6.626224,2.542628 5.245929,0.87522 21.377399,0.877347 26.618169,0.0035 1.29782,-0.216395 2.59335,-0.686958 5.26059,-1.910755 5.15132,-2.363552 6.49613,-2.849964 9.21346,-3.332461 2.34001,-0.415496 6.49695,-0.425772 8.30972,-0.02054 2.58608,0.578099 5.3082,1.72196 7.34685,3.087215 3.806,2.548824 7.62126,8.679158 10.72325,17.230019 3.95481,10.901751 6.97868,24.793575 8.10864,37.251568 0.29502,3.252607 0.33262,10.345588 0.0664,12.527662 -0.60215,4.935884 -1.8997,8.472866 -3.89029,10.604537 -1.08899,1.166169 -2.03317,1.694523 -3.53596,1.978687 -3.96998,0.750685 -8.29474,-0.363749 -12.61245,-3.250061 -2.02928,-1.356543 -3.78162,-2.878913 -7.75522,-6.737493 -6.49468,-6.306687 -9.50093,-8.66496 -13.35866,-10.479296 -2.52711,-1.188526 -4.36092,-1.636188 -7.89716,-1.927821 -9.1991,-0.758649 -25.319217,-0.535926 -29.981383,0.414237 -2.434457,0.49615 -5.490421,1.825811 -7.885089,3.430834 -2.856628,1.914648 -5.069355,3.827133 -10.225624,8.83812 -5.962924,5.794913 -8.731404,7.777039 -12.736559,9.118889 -2.339755,0.78389 -5.267139,1.01365 -7.448355,0.584594 z m 4.916,-0.110833 c 3.39791,-0.592546 6.863336,-2.354016 10.33708,-5.254321 0.752091,-0.627937 2.769342,-2.499507 4.482782,-4.159045 5.631262,-5.454113 7.53056,-7.098104 10.467239,-9.060212 2.700162,-1.804083 5.417074,-3.002162 8.004664,-3.529827 5.583329,-1.138561 27.998966,-1.138561 33.582286,0 4.37675,0.892513 8.80152,3.525482 14.03088,8.349108 0.72913,0.672552 2.72759,2.581356 4.44103,4.241787 3.5015,3.393176 5.23006,4.883257 7.20042,6.206999 4.11042,2.761502 8.52847,3.907602 12.30306,3.191574 1.47415,-0.279643 2.38667,-0.750057 3.35586,-1.729994 4.66393,-4.71566 5.53486,-16.220411 2.58286,-34.118689 -1.30146,-7.890841 -2.92243,-14.621111 -5.44384,-22.60282 -3.32158,-10.514689 -7.62113,-18.005208 -12.00958,-20.922642 -2.68339,-1.78392 -5.97372,-2.964836 -9.20094,-3.302269 -1.09262,-0.114243 -1.95412,-0.112944 -3.53021,0.0053 -3.63247,0.272575 -5.84388,0.872563 -9.67654,2.625395 -5.66103,2.589019 -6.35025,2.831106 -8.78047,3.084109 -5.86179,0.610256 -18.265553,0.610256 -24.127345,0 -2.430214,-0.253003 -3.119439,-0.49509 -8.780468,-3.084109 -3.804684,-1.740036 -6.028519,-2.347113 -9.607295,-2.62266 -2.460034,-0.18941 -4.475048,-0.0264 -6.536957,0.528831 -5.515486,1.485206 -8.700626,3.950439 -12.052599,9.328463 -4.838051,7.762342 -9.651839,23.465576 -12.001261,39.149748 -1.017593,6.793208 -1.323014,10.426686 -1.320482,15.709291 0.002,4.251994 0.128803,5.862777 0.6661,8.463997 0.853471,4.131917 2.677936,7.45505 4.825028,8.788443 1.302803,0.809071 4.383813,1.132897 6.788698,0.71352 z"
       id="path75"
       inkscape:connector-curvature="0"
       sodipodi:nodetypes="csssssscsscscsssccsscscssssscccssssscscscsscscsssssssscsscc" />
    <ellipse
       style="fill:#ffffff;fill-opacity:1;stroke:#000000;stroke-width:0.26458332;stroke-opacity:1"
       id="path171"
       cx="79.906517"
       cy="57.920727"
       rx="12.037199"
       ry="11.140812" />
    <circle
       style="fill:#ffffff;fill-opacity:1;stroke:#000000;stroke-width:0.13056441;stroke-opacity:1"
       id="path978"
       cx="105.50748"
       cy="32.575855"
       r="4.9347177" />
    <circle
       style="fill:#ffffff;fill-opacity:1;stroke:#000000;stroke-width:0.14362085;stroke-opacity:1"
       id="path978-3"
       cx="145.71472"
       cy="46.279919"
       r="5.4281898" />
    <circle
       style="fill:#ffffff;fill-opacity:1;stroke:#000000;stroke-width:0.14362085;stroke-opacity:1"
       id="path978-3-6"
       cx="132.15311"
       cy="58.048786"
       r="5.4281898" />
  </g>
</svg>
